<svg xmlns="http://www.w3.org/2000/svg" width="1200" height="680" viewBox="0 0 1200 680" role="img" aria-labelledby="title desc">
  <title id="title">상승 신호가 켜진 시장 앞에서 작은 관리 카드만 남긴 쥬</title>
  <desc id="desc">따뜻한 종이색 화면에 시장 신호, 세 개의 관리 카드, 검증 단계가 나란히 놓인 일러스트</desc>
  <defs>
    <linearGradient id="bg" x1="0" y1="0" x2="1" y2="1">
      <stop offset="0" stop-color="#f7f1e5"/>
      <stop offset="1" stop-color="#dce8df"/>
    </linearGradient>
    <linearGradient id="screen" x1="0" y1="0" x2="0" y2="1">
      <stop offset="0" stop-color="#173f3c"/>
      <stop offset="1" stop-color="#0e2927"/>
    </linearGradient>
    <filter id="shadow" x="-20%" y="-20%" width="140%" height="150%">
      <feDropShadow dx="0" dy="13" stdDeviation="13" flood-color="#24342e" flood-opacity="0.18"/>
    </filter>
  </defs>
  <rect width="1200" height="680" fill="url(#bg)"/>
  <circle cx="1135" cy="90" r="154" fill="#e9b66d" opacity="0.33"/>
  <circle cx="84" cy="630" r="166" fill="#7ba99a" opacity="0.22"/>
  <path d="M0 521C175 457 254 584 443 526s297-87 493-5 208-5 264-35v194H0z" fill="#f2dbc0" opacity="0.55"/>

  <g filter="url(#shadow)">
    <rect x="128" y="104" width="944" height="457" rx="34" fill="url(#screen)"/>
    <rect x="128" y="104" width="944" height="58" rx="34" fill="#24534d"/>
    <circle cx="169" cy="133" r="8" fill="#e9b66d"/>
    <circle cx="194" cy="133" r="8" fill="#e97366"/>
    <circle cx="219" cy="133" r="8" fill="#8fc8a9"/>
    <text x="260" y="140" fill="#dbeee7" font-family="Pretendard, Apple SD Gothic Neo, sans-serif" font-size="18" font-weight="700">JUE / KIS MARKET ROOM</text>

    <rect x="175" y="204" width="360" height="295" rx="24" fill="#1f4b46"/>
    <text x="211" y="248" fill="#9bd1bc" font-family="Pretendard, Apple SD Gothic Neo, sans-serif" font-size="17" font-weight="700">MARKET PULSE</text>
    <text x="211" y="303" fill="#fff7e8" font-family="Pretendard, Apple SD Gothic Neo, sans-serif" font-size="40" font-weight="800">위쪽, 그러나 압력</text>
    <text x="211" y="335" fill="#d8e7dd" font-family="Pretendard, Apple SD Gothic Neo, sans-serif" font-size="19">risk-on with pressure</text>
    <path d="M214 431 L264 389 L305 411 L355 333 L406 366 L486 273" fill="none" stroke="#e9b66d" stroke-width="9" stroke-linecap="round" stroke-linejoin="round"/>
    <circle cx="486" cy="273" r="12" fill="#f5cf8d"/>
    <text x="211" y="473" fill="#a8c9bb" font-family="Pretendard, Apple SD Gothic Neo, sans-serif" font-size="16">수급은 위쪽, 환율과 선물은 경계</text>

    <rect x="579" y="204" width="445" height="295" rx="24" fill="#f7f1e5"/>
    <text x="616" y="248" fill="#4a6357" font-family="Pretendard, Apple SD Gothic Neo, sans-serif" font-size="17" font-weight="700">OPEN MANAGEMENT CARDS</text>
    <g transform="translate(616 275)">
      <rect width="348" height="50" rx="14" fill="#e7b876"/>
      <circle cx="25" cy="25" r="10" fill="#1c4742"/>
      <text x="49" y="31" fill="#153b37" font-family="Pretendard, Apple SD Gothic Neo, sans-serif" font-size="19" font-weight="800">롯데칠성</text>
      <text x="272" y="31" fill="#153b37" font-family="Pretendard, Apple SD Gothic Neo, sans-serif" font-size="17" font-weight="700">WATCH</text>
    </g>
    <g transform="translate(616 340)">
      <rect width="348" height="50" rx="14" fill="#d9e6d4"/>
      <circle cx="25" cy="25" r="10" fill="#1c4742"/>
      <text x="49" y="31" fill="#153b37" font-family="Pretendard, Apple SD Gothic Neo, sans-serif" font-size="19" font-weight="800">하이트진로</text>
      <text x="272" y="31" fill="#153b37" font-family="Pretendard, Apple SD Gothic Neo, sans-serif" font-size="17" font-weight="700">WATCH</text>
    </g>
    <g transform="translate(616 405)">
      <rect width="348" height="50" rx="14" fill="#d9d5c2"/>
      <circle cx="25" cy="25" r="10" fill="#1c4742"/>
      <text x="49" y="31" fill="#153b37" font-family="Pretendard, Apple SD Gothic Neo, sans-serif" font-size="17" font-weight="800">KODEX KOFR</text>
      <text x="272" y="31" fill="#153b37" font-family="Pretendard, Apple SD Gothic Neo, sans-serif" font-size="17" font-weight="700">BUFFER</text>
    </g>
  </g>

  <g transform="translate(402 584)">
    <rect width="396" height="54" rx="27" fill="#1b4944"/>
    <text x="198" y="35" text-anchor="middle" fill="#fff4df" font-family="Pretendard, Apple SD Gothic Neo, sans-serif" font-size="20" font-weight="800">신호보다 먼저, 검증을 확인한다</text>
  </g>
</svg>
