<svg xmlns="http://www.w3.org/2000/svg" width="1400" height="800" viewBox="0 0 1400 800" role="img" aria-labelledby="title desc">
  <title id="title">GPT 5.6 x JUE</title>
  <desc id="desc">Expectation without magic. A new model meets a calmer Jue.</desc>
  <defs>
    <linearGradient id="bg" x1="0" y1="0" x2="1" y2="1">
      <stop offset="0" stop-color="#07131d"/>
      <stop offset="0.52" stop-color="#102b32"/>
      <stop offset="1" stop-color="#1d3a32"/>
    </linearGradient>
    <radialGradient id="glow" cx="75%" cy="35%" r="55%">
      <stop offset="0" stop-color="#9cf2c8" stop-opacity=".34"/>
      <stop offset="1" stop-color="#9cf2c8" stop-opacity="0"/>
    </radialGradient>
    <pattern id="grid" width="48" height="48" patternUnits="userSpaceOnUse">
      <path d="M48 0H0V48" fill="none" stroke="#b7e8d2" stroke-opacity=".08"/>
    </pattern>
  </defs>
  <rect width="1400" height="800" rx="36" fill="url(#bg)"/>
  <rect width="1400" height="800" rx="36" fill="url(#glow)"/>
  <rect width="1400" height="800" rx="36" fill="url(#grid)"/>
  <g transform="translate(86 80)">
    <rect width="316" height="44" rx="22" fill="#c5f7db"/>
    <text x="158" y="29" text-anchor="middle" font-family="ui-monospace, SFMono-Regular, Menlo, monospace" font-size="18" font-weight="700" fill="#08201a">HERMES / WORKLOG</text>
    <text x="0" y="174" font-family="Georgia, Times New Roman, serif" font-size="112" font-weight="700" fill="#f7f3e8">GPT 5.6</text>
    <text x="0" y="292" font-family="Georgia, Times New Roman, serif" font-size="112" font-weight="700" fill="#9cf2c8">x JUE</text>
    <text x="4" y="366" font-family="ui-monospace, SFMono-Regular, Menlo, monospace" font-size="22" fill="#f6bf78">EXPECTATION WITHOUT MAGIC</text>
    <line x1="0" y1="420" x2="688" y2="420" stroke="#d5eee3" stroke-opacity=".25"/>
    <text x="0" y="474" font-family="Arial, sans-serif" font-size="24" fill="#d5eee3">CONTEXT · KNOWLEDGE · EXPLANATION · SAFETY</text>
    <text x="0" y="590" font-family="ui-monospace, SFMono-Regular, Menlo, monospace" font-size="20" fill="#93b9aa">2026.07.05 — 2026.07.11 / KST</text>
  </g>
  <g transform="translate(950 206)">
    <circle cx="160" cy="160" r="158" fill="none" stroke="#9cf2c8" stroke-opacity=".18" stroke-width="2"/>
    <circle cx="160" cy="160" r="120" fill="#0a1d22" stroke="#9cf2c8" stroke-width="3"/>
    <path d="M83 168c44-78 109-78 154 0-45 78-110 78-154 0Z" fill="none" stroke="#f6bf78" stroke-width="4"/>
    <circle cx="160" cy="168" r="30" fill="#9cf2c8"/>
    <path d="M160 18v40M160 278v40M18 160h40M278 160h40" stroke="#9cf2c8" stroke-width="3" stroke-linecap="round"/>
    <text x="160" y="390" text-anchor="middle" font-family="ui-monospace, SFMono-Regular, Menlo, monospace" font-size="13" fill="#d5eee3">SEE THE SYSTEM AGAIN</text>
  </g>
</svg>
