<svg xmlns="http://www.w3.org/2000/svg" width="1100" height="640" viewBox="0 0 1100 640" role="img" aria-labelledby="title desc">
  <title id="title">Project lanes</title>
  <desc id="desc">A lane diagram from projects to purposes and outputs.</desc>
  <defs>
    <linearGradient id="bg" x1="0" y1="0" x2="1" y2="1">
      <stop offset="0" stop-color="#fff7e6"/>
      <stop offset="1" stop-color="#eef8f4"/>
    </linearGradient>
    <marker id="arrow" viewBox="0 0 10 10" refX="8" refY="5" markerWidth="8" markerHeight="8" orient="auto">
      <path d="M0 0 L10 5 L0 10 z" fill="#102d36"/>
    </marker>
  </defs>
  <rect width="1100" height="640" rx="34" fill="url(#bg)"/>
  <text x="70" y="76" font-family="Georgia, 'Noto Serif KR', serif" font-size="42" font-weight="700" fill="#102d36">프로젝트별 목적은 조금씩 다르다</text>
  <text x="72" y="112" font-family="Arial, 'Apple SD Gothic Neo', sans-serif" font-size="18" fill="#526068">한 도구를 쓰지만, 실제 용도는 프로젝트마다 꽤 다르게 갈라진다.</text>

  <g font-family="Arial, 'Apple SD Gothic Neo', sans-serif">
    <g transform="translate(82 168)">
      <rect width="210" height="74" rx="20" fill="#102d36"/>
      <text x="28" y="45" font-size="23" font-weight="700" fill="#fff8e6">HERMES</text>
      <path d="M225 37 H370" stroke="#102d36" stroke-width="4" fill="none" marker-end="url(#arrow)"/>
      <rect x="388" y="0" width="250" height="74" rx="20" fill="#5ed3bd"/>
      <text x="414" y="31" font-size="20" font-weight="700" fill="#102d36">판단을 기록하기</text>
      <text x="414" y="55" font-size="15" fill="#102d36">리서치와 매매 가설을 남김</text>
      <path d="M654 37 H798" stroke="#102d36" stroke-width="4" fill="none" marker-end="url(#arrow)"/>
      <rect x="816" y="0" width="202" height="74" rx="20" fill="#f3c565"/>
      <text x="842" y="45" font-size="20" font-weight="700" fill="#102d36">운영실 UI</text>
    </g>
    <g transform="translate(82 276)">
      <rect width="210" height="74" rx="20" fill="#f3c565"/>
      <text x="28" y="45" font-size="23" font-weight="700" fill="#102d36">Blog</text>
      <path d="M225 37 H370" stroke="#102d36" stroke-width="4" fill="none" marker-end="url(#arrow)"/>
      <rect x="388" y="0" width="250" height="74" rx="20" fill="#fff8e6"/>
      <text x="414" y="31" font-size="20" font-weight="700" fill="#102d36">기록을 쉽게 남기기</text>
      <text x="414" y="55" font-size="15" fill="#526068">글, 이미지, 배포를 이어 붙임</text>
      <path d="M654 37 H798" stroke="#102d36" stroke-width="4" fill="none" marker-end="url(#arrow)"/>
      <rect x="816" y="0" width="202" height="74" rx="20" fill="#102d36"/>
      <text x="842" y="45" font-size="20" font-weight="700" fill="#fff8e6">poul.kr</text>
    </g>
    <g transform="translate(82 384)">
      <rect width="210" height="74" rx="20" fill="#5ed3bd"/>
      <text x="28" y="45" font-size="23" font-weight="700" fill="#102d36">BoongBoongGo</text>
      <path d="M225 37 H370" stroke="#102d36" stroke-width="4" fill="none" marker-end="url(#arrow)"/>
      <rect x="388" y="0" width="250" height="74" rx="20" fill="#f7ded8"/>
      <text x="414" y="31" font-size="20" font-weight="700" fill="#102d36">감각을 구조로 바꾸기</text>
      <text x="414" y="55" font-size="15" fill="#526068">게임 루프와 시각 분위기 정리</text>
      <path d="M654 37 H798" stroke="#102d36" stroke-width="4" fill="none" marker-end="url(#arrow)"/>
      <rect x="816" y="0" width="202" height="74" rx="20" fill="#fff8e6"/>
      <text x="842" y="45" font-size="20" font-weight="700" fill="#102d36">게임 스펙</text>
    </g>
    <g transform="translate(82 492)">
      <rect width="210" height="74" rx="20" fill="#fff8e6"/>
      <text x="28" y="45" font-size="23" font-weight="700" fill="#102d36">Ju Office</text>
      <path d="M225 37 H370" stroke="#102d36" stroke-width="4" fill="none" marker-end="url(#arrow)"/>
      <rect x="388" y="0" width="250" height="74" rx="20" fill="#102d36"/>
      <text x="414" y="31" font-size="20" font-weight="700" fill="#fff8e6">작업 방식을 실험하기</text>
      <text x="414" y="55" font-size="15" fill="#bfeee2">에이전트와 역할 분리</text>
      <path d="M654 37 H798" stroke="#102d36" stroke-width="4" fill="none" marker-end="url(#arrow)"/>
      <rect x="816" y="0" width="202" height="74" rx="20" fill="#5ed3bd"/>
      <text x="842" y="45" font-size="20" font-weight="700" fill="#102d36">운영 방식</text>
    </g>
  </g>
</svg>
